<svg xmlns="http://www.w3.org/2000/svg" xmlns:xlink="http://www.w3.org/1999/xlink" width="100%" height="100%" version="1.1" viewBox="0 0 16 16" xml:space="preserve" style="fill-rule:evenodd;clip-rule:evenodd;stroke-linejoin:round;stroke-miterlimit:2"><g transform="matrix(3.77953,0,0,3.77953,1.88976e-07,0)"><path d="M0,0L0,4.233L4.233,4.233L4.233,0L0,0ZM0.265,0.265L3.969,0.265L3.969,3.969L0.265,3.969L0.265,0.265Z" style="fill:#8da5f3;fill-rule:nonzero"/><rect width=".794" height=".794" x=".529" y=".529" style="fill:#8da5f3;fill-rule:nonzero"/><rect width=".794" height=".794" x="2.117" y=".529" style="fill:#8da5f3;fill-rule:nonzero"/><rect width=".794" height=".794" x="2.91" y="1.323" style="fill:#8da5f3;fill-rule:nonzero"/><rect width=".794" height=".794" x="1.323" y="1.323" style="fill:#8da5f3;fill-rule:nonzero"/><rect width=".794" height=".794" x=".529" y="2.117" style="fill:#8da5f3;fill-rule:nonzero"/><rect width=".794" height=".794" x="2.117" y="2.117" style="fill:#8da5f3;fill-rule:nonzero"/><rect width=".794" height=".794" x="1.323" y="2.91" style="fill:#8da5f3;fill-rule:nonzero"/><rect width=".794" height=".794" x="2.91" y="2.91" style="fill:#8da5f3;fill-rule:nonzero"/></g></svg>