<svg xmlns="http://www.w3.org/2000/svg" xmlns:xlink="http://www.w3.org/1999/xlink" width="100%" height="100%" version="1.1" viewBox="0 0 16 16" xml:space="preserve" style="fill-rule:evenodd;clip-rule:evenodd;stroke-linejoin:round;stroke-miterlimit:2"><g><g><g transform="matrix(3.77953,0,0,3.77953,1.88976e-07,0) matrix(0.264583,0,0,0.231508,-4.99999e-08,0.264583)"><rect width="1" height="15.999" x="1" y="0" style="fill:#dfdfe0"/></g><g><path d="M15,0L15,7.999C15,7.999 12.401,6.833 11.065,6.999C9.729,7.166 8.328,8.833 6.984,9C5.64,9.167 3,7.999 3,7.999L3,0C3,0 5.663,1.167 6.996,1.001C8.329,0.834 9.664,-0.833 10.998,-1C12.332,-1.167 15,0 15,0Z" transform="matrix(3.77953,0,0,3.77953,1.88976e-07,0) matrix(0.264535,0,0,0.264583,0.000395778,0.26044)" style="fill:#dfdfe0"/></g></g></g></svg>