<svg xmlns="http://www.w3.org/2000/svg" xmlns:svg="http://www.w3.org/2000/svg" id="svg291" width="300" height="80" version="1.1" viewBox="0 0 79.375 21.167"><g id="layer1"><g id="g2335" transform="matrix(0.93072355,0,0,0.92874157,17.062816,18.409989)" style="stroke-width:.85374062;stroke-dasharray:none;stroke:none"><path id="rect2095" d="m 24.364404,-16.012976 a 1.7811118,1.7811118 0 0 0 -1.568379,0.938961 1.7811118,1.7811118 0 0 0 -1.557528,-0.918291 1.7811118,1.7811118 0 0 0 -1.383895,0.660942 c -1.816891,-1.243302 -4.115395,-0.49791 -5.162476,1.678967 l -2.844787,5.914368 c -1.050638,2.1842718 -0.431729,4.957652 1.388029,6.2187419 1.819758,1.26108987 4.130958,0.5177068 5.181596,-1.666565 l 1.240234,-2.5786539 h 6.335531 l 1.240234,2.5786539 c 1.050638,2.1842718 3.361322,2.92765487 5.181079,1.666565 1.819758,-1.2610899 2.439184,-4.0344701 1.388546,-6.2187419 L 30.9578,-13.652397 c -1.050637,-2.184271 -3.361838,-2.927654 -5.181596,-1.666565 -1.97e-4,1.37e-4 -3.19e-4,3.8e-4 -5.16e-4,5.17e-4 a 1.7811118,1.7811118 0 0 0 -1.411284,-0.694531 z" style="fill:#349684;fill-opacity:1;stroke:#152f2c;stroke-width:.56916041;stroke-linecap:round;stroke-linejoin:round;stroke-dasharray:none;stroke-dashoffset:.3;stroke-opacity:1;paint-order:normal"/><rect style="fill:#fff;fill-opacity:1;stroke:none;stroke-width:.85374062;stroke-linecap:round;stroke-linejoin:round;stroke-dasharray:none;stroke-dashoffset:.3;stroke-opacity:1;paint-order:markers stroke fill" id="rect2101" width="1.403" height="4.28" x="17.394" y="-13.427" rx=".754" ry=".755"/><rect style="fill:#fff;fill-opacity:1;stroke:none;stroke-width:.85374062;stroke-linecap:round;stroke-linejoin:round;stroke-dasharray:none;stroke-dashoffset:.3;stroke-opacity:1;paint-order:markers stroke fill" id="rect2103" width="1.403" height="4.28" x="-11.989" y="-20.236" rx=".755" ry=".754" transform="rotate(90)"/><ellipse style="fill:#fff;fill-opacity:1;stroke:none;stroke-width:.85374062;stroke-linecap:round;stroke-linejoin:round;stroke-dasharray:none;stroke-dashoffset:.3;stroke-opacity:1;paint-order:markers stroke fill" id="ellipse2105" cx="28.193" cy="2.759" rx=".823" ry=".793" transform="rotate(-30)"/><ellipse style="fill:#fff;fill-opacity:1;stroke:none;stroke-width:.85374062;stroke-linecap:round;stroke-linejoin:round;stroke-dasharray:none;stroke-dashoffset:.3;stroke-opacity:1;paint-order:markers stroke fill" id="ellipse2107" cx="28.217" cy="4.794" rx=".823" ry=".793" transform="rotate(-30)"/><ellipse style="fill:#fff;fill-opacity:1;stroke:none;stroke-width:.85374062;stroke-linecap:round;stroke-linejoin:round;stroke-dasharray:none;stroke-dashoffset:.3;stroke-opacity:1;paint-order:markers stroke fill" id="ellipse2109" cx="30.28" cy="2.699" rx=".823" ry=".793" transform="rotate(-30)"/><ellipse style="fill:#fff;fill-opacity:1;stroke:none;stroke-width:.85374062;stroke-linecap:round;stroke-linejoin:round;stroke-dasharray:none;stroke-dashoffset:.3;stroke-opacity:1;paint-order:markers stroke fill" id="ellipse2111" cx="30.32" cy="4.767" rx=".823" ry=".793" transform="rotate(-30)"/><rect style="fill:#fff;fill-opacity:1;stroke:none;stroke-width:.85374062;stroke-linecap:round;stroke-linejoin:round;stroke-dasharray:none;stroke-dashoffset:.3;stroke-opacity:1;paint-order:markers stroke fill" id="rect2117" width="1.11" height="2.167" x="22.091" y="-10.531" rx=".528" ry=".529"/></g><path id="rect1625" d="m 50.52517,5.3570989 c -0.643062,0 -1.160653,0.5900216 -1.160653,1.3229166 v 1.0764201 h -1.07642 c -0.732895,0 -1.322916,0.5175908 -1.322916,1.1606533 0,0.643061 0.590021,1.1611691 1.322916,1.1611691 h 1.07642 v 1.076421 c 0,0.732895 0.517591,1.322917 1.160653,1.322917 0.643062,0 1.160653,-0.590022 1.160653,-1.322917 v -1.076421 h 1.076937 c 0.732895,0 1.322916,-0.5181081 1.322916,-1.1611691 0,-0.6430625 -0.590021,-1.1606533 -1.322916,-1.1606533 H 51.685823 V 6.6800155 c 0,-0.732895 -0.517591,-1.3229166 -1.160653,-1.3229166 z" style="fill:#50fa7b;fill-opacity:1;stroke:#0f451d;stroke-width:.593381;stroke-dasharray:none;stroke-opacity:1;paint-order:normal"/><path id="path2678" d="m 57.791691,5.357099 c -0.643062,0 -1.160653,0.5900216 -1.160653,1.3229166 v 1.0764201 h -1.07642 c -0.732895,0 -1.322916,0.5175908 -1.322916,1.1606522 0,0.643062 0.590021,1.1611701 1.322916,1.1611701 h 1.07642 v 1.076421 c 0,0.732895 0.517591,1.322917 1.160653,1.322917 0.643062,0 1.160653,-0.590022 1.160653,-1.322917 v -1.076421 h 1.076937 c 0.732895,0 1.322916,-0.5181081 1.322916,-1.1611701 0,-0.6430614 -0.590021,-1.1606522 -1.322916,-1.1606522 H 58.952344 V 6.6800156 c 0,-0.732895 -0.517591,-1.3229166 -1.160653,-1.3229166 z" style="fill:#50fa7b;fill-opacity:1;stroke:#0f451d;stroke-width:.593381;stroke-dasharray:none;stroke-opacity:1;paint-order:normal"/><rect style="fill:#000;fill-opacity:1;stroke-width:.72829;stroke-linecap:round;stroke-linejoin:round;stroke-dashoffset:.3;paint-order:markers stroke fill" id="rect413" width="10.2" height="8.785" x="-21.316" y="3.037"/><rect style="fill:#000;fill-opacity:1;stroke-width:.622475;stroke-linecap:round;stroke-linejoin:round;stroke-dashoffset:.3;paint-order:markers stroke fill" id="rect415" width="7.993" height="15.313" x="-20.547" y="12.977" rx="4.375" ry="4.375" transform="matrix(0.82192626,0.56959391,-0.43346431,0.90117073,0,0)"/><rect style="fill:#000;fill-opacity:1;stroke-width:.622475;stroke-linecap:round;stroke-linejoin:round;stroke-dashoffset:.3;paint-order:markers stroke fill" id="rect471" width="7.993" height="15.313" x="9.158" y="-5.798" rx="4.375" ry="4.375" transform="matrix(-0.82192626,0.56959391,0.43346431,0.90117073,0,0)"/><rect style="fill:#fff;fill-opacity:1;stroke:none;stroke-width:1.32292;stroke-linecap:round;stroke-linejoin:round;stroke-dasharray:none;stroke-dashoffset:.3;stroke-opacity:1;paint-order:markers stroke fill" id="rect1137" width="1.403" height="4.28" x="-22.24" y="3.999" rx=".702" ry=".702"/><rect style="fill:#fff;fill-opacity:1;stroke:none;stroke-width:1.32292;stroke-linecap:round;stroke-linejoin:round;stroke-dasharray:none;stroke-dashoffset:.3;stroke-opacity:1;paint-order:markers stroke fill" id="rect1295" width="1.403" height="4.28" x="5.437" y="19.399" rx=".702" ry=".702" transform="rotate(90)"/><ellipse style="fill:#fff;fill-opacity:1;stroke:none;stroke-width:1.32292;stroke-linecap:round;stroke-linejoin:round;stroke-dasharray:none;stroke-dashoffset:.3;stroke-opacity:1;paint-order:markers stroke fill" id="ellipse1297" cx="-13.85" cy="-1.31" rx=".823" ry=".793" transform="rotate(-30)"/><ellipse style="fill:#fff;fill-opacity:1;stroke:none;stroke-width:1.32292;stroke-linecap:round;stroke-linejoin:round;stroke-dasharray:none;stroke-dashoffset:.3;stroke-opacity:1;paint-order:markers stroke fill" id="ellipse1299" cx="-13.826" cy=".725" rx=".823" ry=".793" transform="rotate(-30)"/><ellipse style="fill:#fff;fill-opacity:1;stroke:none;stroke-width:1.32292;stroke-linecap:round;stroke-linejoin:round;stroke-dasharray:none;stroke-dashoffset:.3;stroke-opacity:1;paint-order:markers stroke fill" id="ellipse1301" cx="-11.763" cy="-1.37" rx=".823" ry=".793" transform="rotate(-30)"/><ellipse style="fill:#fff;fill-opacity:1;stroke:none;stroke-width:1.32292;stroke-linecap:round;stroke-linejoin:round;stroke-dasharray:none;stroke-dashoffset:.3;stroke-opacity:1;paint-order:markers stroke fill" id="ellipse1303" cx="-11.722" cy=".698" rx=".823" ry=".793" transform="rotate(-30)"/><circle style="fill:#000;fill-opacity:1;stroke:none;stroke-width:1.32292;stroke-linecap:round;stroke-linejoin:round;stroke-dasharray:none;stroke-dashoffset:.3;stroke-opacity:1;paint-order:markers stroke fill" id="path2085" cx="-17.863" cy="3.375" r="1.781"/><circle style="fill:#000;fill-opacity:1;stroke:none;stroke-width:1.32292;stroke-linecap:round;stroke-linejoin:round;stroke-dasharray:none;stroke-dashoffset:.3;stroke-opacity:1;paint-order:markers stroke fill" id="circle2087" cx="-14.737" cy="3.354" r="1.781"/><rect style="fill:#fff;fill-opacity:1;stroke:none;stroke-width:1.32292;stroke-linecap:round;stroke-linejoin:round;stroke-dasharray:none;stroke-dashoffset:.3;stroke-opacity:1;paint-order:markers stroke fill" id="rect2091" width=".982" height="1.918" x="-16.947" y="7.18" rx=".491" ry=".491"/></g></svg>